<svg xmlns="http://www.w3.org/2000/svg" xmlns:xlink="http://www.w3.org/1999/xlink" viewBox="0 0 1038.62 295"><defs><style>.e2c79909-8864-4dc3-9052-bab5a81076ee{fill:url(#e1ab0a34-6a9f-4c7a-8925-2fcf716b7384);}.aa160634-5347-44db-a682-a93906b06a83{fill:#c868b9;}.abf315a0-ff38-4951-b736-6a1daee87139{fill:#c767c1;}.b5c7e11e-7105-44a9-8e3c-079ec086f344{fill:url(#a5bd71c8-f85f-463a-a733-5d6e42bb9a69);}.a313a7b5-a41f-4e04-bde1-ac84bd709de5{fill:url(#a316c834-6223-4f88-8e91-1ab024d9826d);}</style><linearGradient id="e1ab0a34-6a9f-4c7a-8925-2fcf716b7384" x1="254.82" y1="232.88" x2="443.82" y2="0.38" gradientUnits="userSpaceOnUse"><stop offset="0" stop-color="#c96abd"/><stop offset="0.24" stop-color="#f76ebe"/><stop offset="0.71" stop-color="#f8b985"/><stop offset="1" stop-color="#fad076"/></linearGradient><linearGradient id="a5bd71c8-f85f-463a-a733-5d6e42bb9a69" x1="82.32" y1="209.58" x2="261.82" y2="26.08" gradientUnits="userSpaceOnUse"><stop offset="0" stop-color="#c96abd"/><stop offset="0.38" stop-color="#f76ebe"/><stop offset="0.71" stop-color="#f8b985"/></linearGradient><linearGradient id="a316c834-6223-4f88-8e91-1ab024d9826d" x1="95.76" y1="54.36" x2="28.26" y2="161.36" gradientUnits="userSpaceOnUse"><stop offset="0" stop-color="#facc75"/><stop offset="1" stop-color="#f79c95"/></linearGradient></defs><g id="bfb8a74f-5668-4648-90ef-5696b7ef5d60" data-name="Layer 2"><g id="ebe63bba-7fa2-4675-975b-fdedf989a77d" data-name="图层 1"><path class="e2c79909-8864-4dc3-9052-bab5a81076ee" d="M484.1,0H449.35l-32.5,39.5h-69.5L240,179.88c-13.35,16.38-11.39,35.59,5,48.94h0a37.64,37.64,0,0,0,52.8-5.38L456.85,23.5H484.1a11.75,11.75,0,0,0,0-23.5Z"/><circle class="aa160634-5347-44db-a682-a93906b06a83" cx="124.49" cy="272.79" r="22.21"/><circle class="abf315a0-ff38-4951-b736-6a1daee87139" cx="270.74" cy="272.79" r="22.21"/><path class="b5c7e11e-7105-44a9-8e3c-079ec086f344" d="M199.9,39.5l-76.71,99.63a19.91,19.91,0,0,1-33.15-22c-3.9,6.33-19.73,32-15.28,71.83,1.4,12.51,10.14,21.93,17.9,31.84h0a37,37,0,0,0,59.17,1.91L297.63,39.5Z"/><path class="a313a7b5-a41f-4e04-bde1-ac84bd709de5" d="M93.39,112.86l56.55-73.34H56.05A65.77,65.77,0,0,0,29,45.15C-1.22,58.79-7.6,89.89,8.82,113.55l73.55,93.91c-8.36-36-2.21-64.32,2.52-78.62A53.81,53.81,0,0,1,93.39,112.86Z"/><polygon points="452.77 126.42 452.77 168.63 500.06 126.42 500.06 168.63 542.28 126.42 574.36 126.42 473.04 224.91 470.51 184.35 426.6 224.91 426.6 151.25 452.77 126.42"/><path d="M629.67,149.18l-40.45-.42a7.66,7.66,0,1,0,0,15.32h5.48c17.35,0,31.46,13.83,31.46,30.82s-14.11,30.83-31.46,30.83H553.33a11.59,11.59,0,1,1,0-23.17H594.7a7.66,7.66,0,1,0,0-15.31h-5.48c-17.35,0-31.46-13.83-31.46-30.83s14.11-30.83,31.46-30.83l63.25.83Z"/><path d="M1015.82,150.11l-40.45-.41a7.66,7.66,0,1,0,0,15.31h5.49c17.34,0,31.45,13.83,31.45,30.83s-14.11,30.82-31.45,30.82H939.49a11.59,11.59,0,1,1,0-23.17h41.37a7.66,7.66,0,1,0,0-15.31h-5.49c-17.34,0-31.45-13.83-31.45-30.83s14.11-30.83,31.45-30.83l63.25.83Z"/><polygon points="698.91 125.59 698.91 164.49 662.6 164.49 662.6 125.8 633.05 152.49 633.05 227.6 662.6 227.6 662.6 188.9 698.91 188.9 698.91 227.39 728.46 227.39 728.46 125.59 698.91 125.59"/><path d="M790.17,123.94c-29.15,0-52.77,23.15-52.77,51.72s23.62,51.73,52.77,51.73,52.77-23.16,52.77-51.73S819.32,123.94,790.17,123.94Zm-.95,77.2c-14.36,0-26-11.4-26-25.48s11.64-25.48,26-25.48,26,11.41,26,25.48S803.58,201.14,789.22,201.14Z"/><path d="M897.75,124.76H874.67l-28.14,29V227.6h27.76l.29-77.11,23.17-.9a13.52,13.52,0,1,1,0,27H882.17v24.83h15.58c21.58,0,39.13-17.21,39.13-38.35S919.33,124.76,897.75,124.76Z"/></g></g></svg>