<svg xmlns="http://www.w3.org/2000/svg" xmlns:xlink="http://www.w3.org/1999/xlink" viewBox="0 0 454.79 352.82"><defs><style>.bd8c409c-7d7a-4386-9cfe-355df72c9b90{fill:url(#b3207bdb-5120-4c03-a3ac-4706e5d92e9f);}.bfcaaca1-2afd-4ee9-a0e6-35050193c89c{fill:#c868b9;}.ba9f450f-6d24-401d-b70a-e2d92908fbbf{fill:#c767c1;}.a29aa1b9-fb2a-4b9c-a3f7-ac9f3599d20b{fill:url(#a34af0c9-3e0f-4430-83ad-6955d982400b);}.baf64eb5-8dfb-47d6-bb7f-2d5edd313223{fill:url(#f0d7e12a-b400-4624-b527-cb56decb47a5);}</style><linearGradient id="b3207bdb-5120-4c03-a3ac-4706e5d92e9f" x1="237.72" y1="207.44" x2="406.91" y2="-0.69" gradientUnits="userSpaceOnUse"><stop offset="0" stop-color="#c96abd"/><stop offset="0.24" stop-color="#f76ebe"/><stop offset="0.71" stop-color="#f8b985"/><stop offset="1" stop-color="#fad076"/></linearGradient><linearGradient id="a34af0c9-3e0f-4430-83ad-6955d982400b" x1="76.62" y1="183.96" x2="237.62" y2="19.38" gradientUnits="userSpaceOnUse"><stop offset="0" stop-color="#c96abd"/><stop offset="0.38" stop-color="#f76ebe"/><stop offset="0.71" stop-color="#f8b985"/></linearGradient><linearGradient id="f0d7e12a-b400-4624-b527-cb56decb47a5" x1="86.75" y1="45.91" x2="27.08" y2="140.51" gradientUnits="userSpaceOnUse"><stop offset="0" stop-color="#facc75"/><stop offset="1" stop-color="#f79c95"/></linearGradient></defs><g id="bb860a0f-fa75-40a4-800c-9a75f0b024fc" data-name="Layer 2"><g id="b2d43d63-17ff-4096-adf6-7dc6c531b1f4" data-name="图层 1"><polygon points="40.2 291.69 40.2 317.19 68.2 291.69 68.2 317.19 93.2 291.69 112.2 291.69 52.2 351.19 50.7 326.69 24.7 351.19 24.7 306.69 40.2 291.69"/><path d="M145,305.44l-24-.25a4.63,4.63,0,0,0,0,9.25h3.25a18.63,18.63,0,1,1,0,37.25H99.74a7,7,0,0,1,0-14h24.5a4.63,4.63,0,1,0,0-9.25H121a18.63,18.63,0,0,1,0-37.25l37.46.5Z"/><path d="M373.61,306l-23.95-.25a4.63,4.63,0,1,0,0,9.25h3.25a18.63,18.63,0,0,1,0,37.25h-24.5a7,7,0,0,1,0-14h24.5a4.63,4.63,0,0,0,0-9.25h-3.25a18.63,18.63,0,1,1,0-37.25l37.45.5Z"/><polygon points="185.95 291.19 185.95 314.69 164.45 314.69 164.45 291.32 146.95 307.44 146.95 352.82 164.45 352.82 164.45 329.44 185.95 329.44 185.95 352.69 203.45 352.69 203.45 291.19 185.95 291.19"/><path d="M240,290.19a31.25,31.25,0,1,0,31.25,31.25A31.25,31.25,0,0,0,240,290.19Zm-.56,46.65a15.4,15.4,0,1,1,15.39-15.4A15.41,15.41,0,0,1,239.43,336.84Z"/><path d="M303.7,290.69H290l-16.67,17.5v44.63H289.8l.17-46.59,13.73-.54a8.17,8.17,0,0,1,0,16.33h-9.23v15h9.23a23.17,23.17,0,0,0,0-46.33Z"/><path class="bd8c409c-7d7a-4386-9cfe-355df72c9b90" d="M444,0H412.14L382.33,34.59H318.59L220.13,157.51c-12.25,14.34-10.45,31.16,4.57,42.85h0c14.67,11.42,36.47,9.3,48.43-4.71L419,20.58h25a10.57,10.57,0,0,0,10.78-10.29A10.57,10.57,0,0,0,444,0Z"/><ellipse class="bfcaaca1-2afd-4ee9-a0e6-35050193c89c" cx="114.18" cy="238.86" rx="20.37" ry="19.45"/><ellipse class="ba9f450f-6d24-401d-b70a-e2d92908fbbf" cx="248.32" cy="238.86" rx="20.37" ry="19.45"/><path class="a29aa1b9-fb2a-4b9c-a3f7-ac9f3599d20b" d="M183.35,34.59,113,121.82a18.89,18.89,0,0,1-25.55,3.6,17,17,0,0,1-4.85-22.82c-3.58,5.54-18.11,28-14,62.89,1.28,11,9.3,19.2,16.42,27.88h0c12.86,17.7,40.21,18.55,54.27,1.68L273,34.59Z"/><path class="baf64eb5-8dfb-47d6-bb7f-2d5edd313223" d="M85.66,98.83l51.87-64.22H51.41a62.86,62.86,0,0,0-24.84,4.92C-1.12,51.48-7,78.71,8.09,99.43l67.46,82.22c-7.67-31.53-2-56.32,2.31-68.83A46.23,46.23,0,0,1,85.66,98.83Z"/></g></g></svg>