<svg xmlns="http://www.w3.org/2000/svg" xmlns:xlink="http://www.w3.org/1999/xlink" viewBox="0 0 1038.62 296"><defs><style>.cls-1{fill:url(#未命名的渐变_20);}.cls-2{fill:#c868b9;}.cls-3{fill:#c767c1;}.cls-4{fill:url(#未命名的渐变_16);}.cls-5{fill:url(#未命名的渐变_8);}.cls-6{fill:#fff;}</style><linearGradient id="未命名的渐变_20" x1="254.84" y1="233.39" x2="444.05" y2="0.64" gradientUnits="userSpaceOnUse"><stop offset="0" stop-color="#c96abd"/><stop offset="0.24" stop-color="#f76ebe"/><stop offset="0.71" stop-color="#f8b985"/><stop offset="1" stop-color="#fad076"/></linearGradient><linearGradient id="未命名的渐变_16" x1="82.32" y1="210.08" x2="261.82" y2="26.58" gradientUnits="userSpaceOnUse"><stop offset="0" stop-color="#c96abd"/><stop offset="0.38" stop-color="#f76ebe"/><stop offset="0.71" stop-color="#f8b985"/></linearGradient><linearGradient id="未命名的渐变_8" x1="95.76" y1="54.84" x2="28.26" y2="161.84" gradientUnits="userSpaceOnUse"><stop offset="0" stop-color="#facc75"/><stop offset="1" stop-color="#f79c95"/></linearGradient></defs><g id="Layer_2" data-name="Layer 2"><g id="WHITE_MAIN" data-name="WHITE MAIN"><path class="cls-1" d="M484,0H449.56L416.65,40h-69.3L240,180.38c-13.35,16.38-11.39,35.59,5,48.94h0a37.64,37.64,0,0,0,52.8-5.38L456.85,24h27A12,12,0,1,0,484,0Z"/><circle class="cls-2" cx="124.38" cy="274" r="22"/><circle class="cls-3" cx="270.38" cy="274" r="22"/><path class="cls-4" d="M199.9,40l-76.71,99.63a19.91,19.91,0,0,1-33.15-22c-3.9,6.33-19.73,32-15.28,71.83,1.4,12.51,10.14,21.93,17.9,31.84h0a37,37,0,0,0,59.17,1.91L297.63,40Z"/><path class="cls-5" d="M93.39,113.34,149.94,40H56.05A65.61,65.61,0,0,0,29,45.63C-1.22,59.27-7.6,90.36,8.82,114l73.55,93.9c-8.36-36-2.21-64.32,2.52-78.61A53.68,53.68,0,0,1,93.39,113.34Z"/><polygon class="cls-6" points="452.77 127.14 452.77 169.35 500.06 127.14 500.06 169.35 542.28 127.14 574.36 127.14 473.04 225.62 470.51 185.07 426.6 225.62 426.6 151.97 452.77 127.14"/><path class="cls-6" d="M629.67,149.9l-40.45-.42a7.66,7.66,0,1,0,0,15.31h5.48c17.35,0,31.46,13.83,31.46,30.83s-14.11,30.83-31.46,30.83H553.33a11.59,11.59,0,1,1,0-23.17H594.7a7.66,7.66,0,1,0,0-15.31h-5.48c-17.35,0-31.46-13.83-31.46-30.83s14.11-30.83,31.46-30.83l63.25.83Z"/><path class="cls-6" d="M1015.82,150.83l-40.45-.42a7.66,7.66,0,1,0,0,15.31h5.49c17.34,0,31.45,13.84,31.45,30.83s-14.11,30.83-31.45,30.83H939.49a11.59,11.59,0,1,1,0-23.17h41.37a7.66,7.66,0,1,0,0-15.31h-5.49c-17.34,0-31.45-13.83-31.45-30.83s14.11-30.83,31.45-30.83l63.25.83Z"/><polygon class="cls-6" points="698.91 126.31 698.91 165.21 662.6 165.21 662.6 126.52 633.05 153.21 633.05 228.31 662.6 228.31 662.6 189.62 698.91 189.62 698.91 228.11 728.46 228.11 728.46 126.31 698.91 126.31"/><path class="cls-6" d="M790.17,124.65c-29.15,0-52.77,23.16-52.77,51.73s23.62,51.73,52.77,51.73,52.77-23.16,52.77-51.73S819.32,124.65,790.17,124.65Zm-.95,77.21c-14.36,0-26-11.41-26-25.48s11.64-25.48,26-25.48,26,11.41,26,25.48S803.58,201.86,789.22,201.86Z"/><path class="cls-6" d="M897.75,125.48H874.67l-28.14,29v73.86h27.76l.29-77.11,23.17-.89a13.52,13.52,0,1,1,0,27H882.17v24.82h15.58c21.58,0,39.13-17.2,39.13-38.34S919.33,125.48,897.75,125.48Z"/></g></g></svg>