<svg id="a07c404e-3d2c-43ab-9608-52d26dd9df02" data-name="图层 1" xmlns="http://www.w3.org/2000/svg" xmlns:xlink="http://www.w3.org/1999/xlink" viewBox="0 0 1133.86 1133.86"><defs><style>.a98b9c58-acea-4a2f-9062-5330253007ff{fill:url(#a17e64f1-c154-4b8e-9f35-9bbb11b45b13);}.a0d9c524-bef2-4d00-8b60-d67abc336668{fill:#c868b9;}.ab8698e6-5d23-47cd-8dfd-51640539dde1{fill:#c767c1;}.a4905f96-b7d7-447d-9de1-3405b2698bee{fill:url(#ee0de05a-c622-4cbc-9872-caee5d9d84a0);}.ae6db7e0-13c7-4613-b50b-64d69fc066ac{fill:url(#eb9b175a-58ad-4b95-9174-e293df316809);}</style><linearGradient id="a17e64f1-c154-4b8e-9f35-9bbb11b45b13" x1="602.66" y1="584.11" x2="771.85" y2="375.98" gradientUnits="userSpaceOnUse"><stop offset="0" stop-color="#c96abd"/><stop offset="0.24" stop-color="#f76ebe"/><stop offset="0.71" stop-color="#f8b985"/><stop offset="1" stop-color="#fad076"/></linearGradient><linearGradient id="ee0de05a-c622-4cbc-9872-caee5d9d84a0" x1="441.56" y1="560.63" x2="602.56" y2="396.04" gradientUnits="userSpaceOnUse"><stop offset="0" stop-color="#c96abd"/><stop offset="0.38" stop-color="#f76ebe"/><stop offset="0.71" stop-color="#f8b985"/></linearGradient><linearGradient id="eb9b175a-58ad-4b95-9174-e293df316809" x1="451.69" y1="422.58" x2="392.02" y2="517.17" gradientUnits="userSpaceOnUse"><stop offset="0" stop-color="#facc75"/><stop offset="1" stop-color="#f79c95"/></linearGradient></defs><polygon points="405.13 668.36 405.13 693.86 433.13 668.36 433.13 693.86 458.13 668.36 477.13 668.36 417.13 727.86 415.63 703.36 389.63 727.86 389.63 683.36 405.13 668.36"/><path d="M509.88,682.11l-23.95-.25a4.63,4.63,0,1,0,0,9.25h3.25a18.63,18.63,0,0,1,0,37.25h-24.5a7,7,0,1,1,0-14h24.5a4.63,4.63,0,0,0,0-9.25h-3.25a18.63,18.63,0,1,1,0-37.25l37.45.5Z"/><path d="M738.55,682.67l-23.95-.25a4.63,4.63,0,1,0,0,9.25h3.25a18.63,18.63,0,0,1,0,37.25h-24.5a7,7,0,0,1,0-14h24.5a4.63,4.63,0,0,0,0-9.25H714.6a18.63,18.63,0,1,1,0-37.25l37.45.5Z"/><polygon points="550.88 667.86 550.88 691.36 529.38 691.36 529.38 667.98 511.88 684.11 511.88 729.48 529.38 729.48 529.38 706.11 550.88 706.11 550.88 729.36 568.38 729.36 568.38 667.86 550.88 667.86"/><path d="M604.93,666.86a31.25,31.25,0,1,0,31.25,31.25A31.25,31.25,0,0,0,604.93,666.86Zm-.57,46.64a15.4,15.4,0,1,1,15.4-15.39A15.39,15.39,0,0,1,604.36,713.5Z"/><path d="M668.63,667.36H655l-16.67,17.5v44.62h16.44l.17-46.58,13.72-.54a8.17,8.17,0,1,1,0,16.33h-9.22v15h9.22a23.17,23.17,0,1,0,0-46.33Z"/><path class="a98b9c58-acea-4a2f-9062-5330253007ff" d="M809,376.67H777.08l-29.81,34.58H683.52L585.06,534.18c-12.24,14.34-10.45,31.16,4.57,42.85h0c14.68,11.42,36.47,9.3,48.44-4.71L784,397.24h25a10.3,10.3,0,1,0,0-20.57Z"/><ellipse class="a0d9c524-bef2-4d00-8b60-d67abc336668" cx="479.12" cy="615.53" rx="20.37" ry="19.45"/><ellipse class="ab8698e6-5d23-47cd-8dfd-51640539dde1" cx="613.26" cy="615.53" rx="20.37" ry="19.45"/><path class="a4905f96-b7d7-447d-9de1-3405b2698bee" d="M548.28,411.25l-70.35,87.24a18.9,18.9,0,0,1-25.55,3.6,17,17,0,0,1-4.86-22.83c-3.57,5.54-18.1,28-14,62.9,1.28,11,9.3,19.2,16.41,27.88h0c12.87,17.7,40.21,18.54,54.27,1.67L637.91,411.25Z"/><path class="ae6db7e0-13c7-4613-b50b-64d69fc066ac" d="M450.59,475.49l51.87-64.22H416.35a62.86,62.86,0,0,0-24.84,4.93C363.82,428.15,358,455.37,373,476.1l67.46,82.22c-7.68-31.53-2-56.32,2.3-68.83A46.62,46.62,0,0,1,450.59,475.49Z"/></svg>