<?xml version="1.0" encoding="UTF-8"?><svg id="uuid-9ea835ae-ed5a-4138-ad4d-63ea235fce2c" xmlns="http://www.w3.org/2000/svg" xmlns:xlink="http://www.w3.org/1999/xlink" viewBox="0 0 1133.86 1133.86"><defs><style>.uuid-2de0091e-c646-4ee5-9651-cfefd9318f2d{fill:#c767c1;}.uuid-fce19156-cef1-4b7d-9d70-cb75a332fbc5{fill:#c868b9;}.uuid-56802f25-5f08-4441-a7c9-8d5e24bce3e6{fill:url(#uuid-3465a250-550e-4b88-bcee-a64236d91651);}.uuid-5b035876-7d24-4c29-bcf4-0486a674e8d5{fill:url(#uuid-8e10035d-c6f4-44cf-8be6-a5ceb607d3d2);}.uuid-2e21c42b-4794-4e6d-8275-bf4a65312cb3{fill:url(#uuid-4553680f-cacd-4970-8bf7-564e3ab4255f);}</style><linearGradient id="uuid-3465a250-550e-4b88-bcee-a64236d91651" x1="599.95" y1="652.32" x2="789.16" y2="419.57" gradientTransform="matrix(1, 0, 0, 1, 0, 0)" gradientUnits="userSpaceOnUse"><stop offset="0" stop-color="#c96abd"/><stop offset=".24" stop-color="#f76ebe"/><stop offset=".71" stop-color="#f8b985"/><stop offset="1" stop-color="#fad076"/></linearGradient><linearGradient id="uuid-4553680f-cacd-4970-8bf7-564e3ab4255f" x1="427.43" y1="629.01" x2="606.93" y2="445.51" gradientTransform="matrix(1, 0, 0, 1, 0, 0)" gradientUnits="userSpaceOnUse"><stop offset="0" stop-color="#c96abd"/><stop offset=".38" stop-color="#f76ebe"/><stop offset=".71" stop-color="#f8b985"/></linearGradient><linearGradient id="uuid-8e10035d-c6f4-44cf-8be6-a5ceb607d3d2" x1="440.87" y1="473.77" x2="373.37" y2="580.77" gradientTransform="matrix(1, 0, 0, 1, 0, 0)" gradientUnits="userSpaceOnUse"><stop offset="0" stop-color="#facc75"/><stop offset="1" stop-color="#f79c95"/></linearGradient></defs><path class="uuid-56802f25-5f08-4441-a7c9-8d5e24bce3e6" d="M829.09,418.93h-34.42l-32.91,40h-69.29l-107.35,140.38c-13.35,16.38-11.4,35.59,4.98,48.94h0c16,13.04,39.76,10.62,52.81-5.38l159.06-199.94h27.04c5.15,0,9.89-3.2,11.47-8.1,2.65-8.23-3.51-15.9-11.38-15.9Z"/><circle class="uuid-fce19156-cef1-4b7d-9d70-cb75a332fbc5" cx="469.49" cy="692.93" r="22"/><circle class="uuid-2de0091e-c646-4ee5-9651-cfefd9318f2d" cx="615.49" cy="692.93" r="22"/><path class="uuid-2e21c42b-4794-4e6d-8275-bf4a65312cb3" d="M545.01,458.93l-76.71,99.63c-6.53,8.79-19.07,10.64-27.86,4.11-8.21-6.1-10.36-17.43-5.29-26.06-3.9,6.33-19.74,32-15.28,71.83,1.4,12.51,10.14,21.93,17.9,31.84h0c14.03,20.22,43.84,21.18,59.17,1.91l145.8-183.25h-97.72Z"/><path class="uuid-5b035876-7d24-4c29-bcf4-0486a674e8d5" d="M438.5,532.27l56.55-73.34h-93.89c-9.32,0-18.6,1.79-27.08,5.63-30.19,13.64-36.57,44.74-20.15,68.4l73.55,93.9c-8.37-36.01-2.21-64.32,2.51-78.61,1.91-5.77,4.79-11.17,8.51-15.98Z"/></svg>