<svg id="WHITE" xmlns="http://www.w3.org/2000/svg" xmlns:xlink="http://www.w3.org/1999/xlink" viewBox="0 0 1133.86 1133.86"><defs><style>.cls-1{fill:#fffdfd;}.cls-2{fill:url(#未命名的渐变_20);}.cls-3{fill:#c868b9;}.cls-4{fill:#c767c1;}.cls-5{fill:url(#未命名的渐变_16);}.cls-6{fill:url(#未命名的渐变_8);}</style><linearGradient id="未命名的渐变_20" x1="600.39" y1="597.96" x2="769.58" y2="389.83" gradientUnits="userSpaceOnUse"><stop offset="0" stop-color="#c96abd"/><stop offset="0.24" stop-color="#f76ebe"/><stop offset="0.71" stop-color="#f8b985"/><stop offset="1" stop-color="#fad076"/></linearGradient><linearGradient id="未命名的渐变_16" x1="439.28" y1="574.49" x2="600.29" y2="409.9" gradientUnits="userSpaceOnUse"><stop offset="0" stop-color="#c96abd"/><stop offset="0.38" stop-color="#f76ebe"/><stop offset="0.71" stop-color="#f8b985"/></linearGradient><linearGradient id="未命名的渐变_8" x1="449.42" y1="436.44" x2="389.75" y2="531.03" gradientUnits="userSpaceOnUse"><stop offset="0" stop-color="#facc75"/><stop offset="1" stop-color="#f79c95"/></linearGradient></defs><polygon class="cls-1" points="402.86 682.21 402.86 707.71 430.86 682.21 430.86 707.71 455.86 682.21 474.86 682.21 414.86 741.71 413.36 717.21 387.36 741.71 387.36 697.21 402.86 682.21"/><path class="cls-1" d="M507.61,696l-23.95-.25a4.63,4.63,0,1,0,0,9.25h3.25a18.63,18.63,0,0,1,0,37.25h-24.5a7,7,0,0,1,0-14h24.5a4.63,4.63,0,0,0,0-9.25h-3.25a18.63,18.63,0,1,1,0-37.25l37.45.5Z"/><path class="cls-1" d="M736.28,696.53l-23.95-.25a4.63,4.63,0,1,0,0,9.25h3.25a18.63,18.63,0,0,1,0,37.25h-24.5a7,7,0,0,1,0-14h24.5a4.63,4.63,0,0,0,0-9.25h-3.25a18.63,18.63,0,1,1,0-37.25l37.45.5Z"/><polygon class="cls-1" points="548.61 681.71 548.61 705.21 527.11 705.21 527.11 681.84 509.61 697.96 509.61 743.34 527.11 743.34 527.11 719.96 548.61 719.96 548.61 743.21 566.11 743.21 566.11 681.71 548.61 681.71"/><path class="cls-1" d="M602.66,680.71A31.25,31.25,0,1,0,633.91,712,31.25,31.25,0,0,0,602.66,680.71Zm-.57,46.65a15.4,15.4,0,1,1,15.4-15.4A15.39,15.39,0,0,1,602.09,727.36Z"/><path class="cls-1" d="M666.36,681.21H652.7L636,698.71v44.63h16.44l.17-46.59,13.72-.54a8.17,8.17,0,0,1,0,16.34h-9.22v15h9.22a23.17,23.17,0,0,0,0-46.34Z"/><path class="cls-2" d="M806.68,390.52H774.81L745,425.11H681.25L582.79,548c-12.24,14.34-10.45,31.16,4.57,42.85h0c14.68,11.42,36.47,9.3,48.44-4.71L781.68,411.1h25a10.3,10.3,0,1,0,0-20.58Z"/><ellipse class="cls-3" cx="476.85" cy="629.38" rx="20.37" ry="19.45"/><ellipse class="cls-4" cx="610.99" cy="629.38" rx="20.37" ry="19.45"/><path class="cls-5" d="M546,425.11l-70.36,87.23a18.89,18.89,0,0,1-25.55,3.6,17,17,0,0,1-4.85-22.82c-3.57,5.54-18.1,28-14,62.89,1.28,11,9.3,19.21,16.41,27.88h0c12.87,17.7,40.21,18.55,54.27,1.68L635.64,425.11Z"/><path class="cls-6" d="M448.32,489.35l51.87-64.22H414.07a62.68,62.68,0,0,0-24.83,4.93C361.55,442,355.7,469.23,370.76,490l67.46,82.23c-7.68-31.53-2-56.32,2.3-68.84A46.57,46.57,0,0,1,448.32,489.35Z"/></svg>