<svg id="ff3bd057-ed8d-46e7-826e-eabc82bef6c1" data-name="图层 1" xmlns="http://www.w3.org/2000/svg" xmlns:xlink="http://www.w3.org/1999/xlink" viewBox="0 0 1133.86 1133.86"><defs><style>.eb8db20d-dca7-4c19-94fe-442e67192e5d{fill:url(#b0a6950d-0c6a-4640-afa2-930a060d0e72);}.f8c75578-35de-49ba-bc1e-50a0771194f9{fill:#c868b9;}.f6787f04-22b7-47ac-8814-b254927e8672{fill:#c767c1;}.a2fd3bbc-a334-45dc-829c-e6c724fdc739{fill:url(#a00a19bc-9a76-41d4-9e18-c6258cd85b62);}.ee33138c-10ee-4a32-9066-32902df243e7{fill:url(#f5cb9331-b4a3-46c3-a04e-e9ee159a57f0);}</style><linearGradient id="b0a6950d-0c6a-4640-afa2-930a060d0e72" x1="302.44" y1="635.45" x2="491.44" y2="402.95" gradientUnits="userSpaceOnUse"><stop offset="0" stop-color="#c96abd"/><stop offset="0.24" stop-color="#f76ebe"/><stop offset="0.71" stop-color="#f8b985"/><stop offset="1" stop-color="#fad076"/></linearGradient><linearGradient id="a00a19bc-9a76-41d4-9e18-c6258cd85b62" x1="129.94" y1="612.15" x2="309.44" y2="428.65" gradientUnits="userSpaceOnUse"><stop offset="0" stop-color="#c96abd"/><stop offset="0.38" stop-color="#f76ebe"/><stop offset="0.71" stop-color="#f8b985"/></linearGradient><linearGradient id="f5cb9331-b4a3-46c3-a04e-e9ee159a57f0" x1="143.38" y1="456.94" x2="75.88" y2="563.94" gradientUnits="userSpaceOnUse"><stop offset="0" stop-color="#facc75"/><stop offset="1" stop-color="#f79c95"/></linearGradient></defs><path class="eb8db20d-dca7-4c19-94fe-442e67192e5d" d="M531.72,402.58H497l-32.5,39.5H395L287.62,582.46c-13.35,16.38-11.39,35.59,5,48.94h0a37.64,37.64,0,0,0,52.8-5.38L504.47,426.08h27.25a11.75,11.75,0,0,0,0-23.5Z"/><circle class="f8c75578-35de-49ba-bc1e-50a0771194f9" cx="172.11" cy="675.36" r="22.21"/><circle class="f6787f04-22b7-47ac-8814-b254927e8672" cx="318.36" cy="675.36" r="22.21"/><path class="a2fd3bbc-a334-45dc-829c-e6c724fdc739" d="M247.52,442.08,170.81,541.7a19.91,19.91,0,0,1-33.15-22c-3.9,6.32-19.73,32-15.28,71.83,1.4,12.51,10.14,21.93,17.9,31.84h0a37,37,0,0,0,59.17,1.91l145.8-183.25Z"/><path class="ee33138c-10ee-4a32-9066-32902df243e7" d="M141,515.44l56.55-73.34H103.67a65.77,65.77,0,0,0-27.08,5.63C46.4,461.37,40,492.46,56.44,516.13L130,610c-8.36-36-2.21-64.32,2.52-78.61A53.68,53.68,0,0,1,141,515.44Z"/><polygon points="500.39 529 500.39 571.21 547.68 529 547.68 571.21 589.9 529 621.98 529 520.66 627.48 518.13 586.93 474.22 627.48 474.22 553.83 500.39 529"/><path d="M677.29,551.76l-40.45-.42a7.66,7.66,0,1,0,0,15.31h5.48c17.35,0,31.46,13.83,31.46,30.83s-14.11,30.83-31.46,30.83H601a11.59,11.59,0,1,1,0-23.17h41.37a7.66,7.66,0,1,0,0-15.31h-5.48c-17.35,0-31.46-13.83-31.46-30.83s14.11-30.83,31.46-30.83l63.25.83Z"/><path d="M1063.44,552.69l-40.45-.42a7.66,7.66,0,1,0,0,15.31h5.49c17.34,0,31.45,13.83,31.45,30.83s-14.11,30.83-31.45,30.83H987.11a11.59,11.59,0,1,1,0-23.17h41.37a7.66,7.66,0,1,0,0-15.31H1023c-17.34,0-31.45-13.83-31.45-30.83s14.11-30.83,31.45-30.83l63.25.83Z"/><polygon points="746.52 528.17 746.52 567.07 710.22 567.07 710.22 528.38 680.66 555.07 680.66 630.17 710.22 630.17 710.22 591.48 746.52 591.48 746.52 629.97 776.08 629.97 776.08 528.17 746.52 528.17"/><path d="M837.79,526.51c-29.15,0-52.77,23.16-52.77,51.73S808.64,630,837.79,630s52.77-23.16,52.77-51.73S866.94,526.51,837.79,526.51Zm-.95,77.21c-14.36,0-26-11.41-26-25.48s11.64-25.48,26-25.48,26,11.41,26,25.48S851.2,603.72,836.84,603.72Z"/><path d="M945.37,527.34H922.29l-28.14,29v73.86h27.76l.29-77.11,23.17-.89a13.52,13.52,0,1,1,0,27H929.79V604h15.58c21.58,0,39.13-17.2,39.13-38.34S967,527.34,945.37,527.34Z"/></svg>