<svg xmlns="http://www.w3.org/2000/svg" xmlns:xlink="http://www.w3.org/1999/xlink" viewBox="0 0 1133.86 1133.86"><defs><style>.cls-1{fill:url(#未命名的渐变_20);}.cls-2{fill:#c868b9;}.cls-3{fill:#c767c1;}.cls-4{fill:url(#未命名的渐变_16);}.cls-5{fill:url(#未命名的渐变_8);}.cls-6{fill:#fff;}</style><linearGradient id="未命名的渐变_20" x1="306.26" y1="652.32" x2="495.47" y2="419.57" gradientUnits="userSpaceOnUse"><stop offset="0" stop-color="#c96abd"/><stop offset="0.24" stop-color="#f76ebe"/><stop offset="0.71" stop-color="#f8b985"/><stop offset="1" stop-color="#fad076"/></linearGradient><linearGradient id="未命名的渐变_16" x1="133.74" y1="629.01" x2="313.24" y2="445.51" gradientUnits="userSpaceOnUse"><stop offset="0" stop-color="#c96abd"/><stop offset="0.38" stop-color="#f76ebe"/><stop offset="0.71" stop-color="#f8b985"/></linearGradient><linearGradient id="未命名的渐变_8" x1="147.18" y1="473.77" x2="79.68" y2="580.77" gradientUnits="userSpaceOnUse"><stop offset="0" stop-color="#facc75"/><stop offset="1" stop-color="#f79c95"/></linearGradient></defs><g id="WHITE_MAIN" data-name="WHITE MAIN"><path class="cls-1" d="M535.4,418.93H501l-32.91,40h-69.3L291.42,599.31c-13.35,16.38-11.39,35.59,5,48.94h0a37.65,37.65,0,0,0,52.81-5.38L508.27,442.93h27a12,12,0,1,0,.09-24Z"/><circle class="cls-2" cx="175.8" cy="692.93" r="22"/><circle class="cls-3" cx="321.8" cy="692.93" r="22"/><path class="cls-4" d="M251.32,458.93l-76.71,99.63a19.91,19.91,0,0,1-33.15-22c-3.9,6.33-19.73,32-15.28,71.83,1.4,12.51,10.14,21.93,17.9,31.84h0a37,37,0,0,0,59.17,1.91l145.8-183.25Z"/><path class="cls-5" d="M144.81,532.27l56.55-73.34H107.47a65.61,65.61,0,0,0-27.08,5.63C50.2,478.2,43.82,509.29,60.24,533l73.55,93.9c-8.37-36-2.21-64.32,2.52-78.61A53.68,53.68,0,0,1,144.81,532.27Z"/><polygon class="cls-6" points="504.19 546.07 504.19 588.28 551.48 546.07 551.48 588.28 593.7 546.07 625.78 546.07 524.46 644.55 521.92 604 478.02 644.55 478.02 570.9 504.19 546.07"/><path class="cls-6" d="M681.09,568.83l-40.46-.42a7.66,7.66,0,1,0,0,15.31h5.49c17.35,0,31.46,13.83,31.46,30.83s-14.11,30.83-31.46,30.83H604.75a11.59,11.59,0,1,1,0-23.17h41.37a7.66,7.66,0,1,0,0-15.31h-5.49c-17.34,0-31.45-13.83-31.45-30.83s14.11-30.83,31.45-30.83l63.25.83Z"/><path class="cls-6" d="M1067.24,569.76l-40.45-.42a7.66,7.66,0,1,0,0,15.31h5.49c17.34,0,31.45,13.84,31.45,30.83s-14.11,30.83-31.45,30.83H990.9a11.59,11.59,0,1,1,0-23.17h41.38a7.66,7.66,0,1,0,0-15.31h-5.49c-17.34,0-31.45-13.83-31.45-30.83s14.11-30.83,31.45-30.83L1090,547Z"/><polygon class="cls-6" points="750.32 545.24 750.32 584.14 714.02 584.14 714.02 545.45 684.46 572.14 684.46 647.24 714.02 647.24 714.02 608.55 750.32 608.55 750.32 647.04 779.88 647.04 779.88 545.24 750.32 545.24"/><path class="cls-6" d="M841.59,543.58c-29.15,0-52.77,23.16-52.77,51.73S812.44,647,841.59,647s52.77-23.16,52.77-51.73S870.73,543.58,841.59,543.58Zm-1,77.21c-14.36,0-26-11.41-26-25.48s11.64-25.48,26-25.48,26,11.41,26,25.48S855,620.79,840.64,620.79Z"/><path class="cls-6" d="M949.17,544.41H926.09l-28.14,29v73.86H925.7l.29-77.11,23.18-.89a13.52,13.52,0,1,1,0,27H933.59V621.1h15.58c21.57,0,39.12-17.2,39.12-38.34S970.74,544.41,949.17,544.41Z"/></g></svg>